Coordinates
version=1
nRows=17
nColumns=40
inDegrees=yes

Units are S.I. units (second, meters, Newtons, ...)
If the header above contains a line with 'inDegrees', this indicates whether rotational values are in degrees (yes) or radians (no).

endheader
time	pelvis_tilt	pelvis_list	pelvis_rotation	pelvis_tx	pelvis_ty	pelvis_tz	hip_flexion_r	hip_adduction_r	hip_rotation_r	knee_angle_r	knee_angle_r_beta	ankle_angle_r	subtalar_angle_r	mtp_angle_r	hip_flexion_l	hip_adduction_l	hip_rotation_l	knee_angle_l	knee_angle_l_beta	ankle_angle_l	subtalar_angle_l	mtp_angle_l	lumbar_extension	lumbar_bending	lumbar_rotation	arm_flex_r	arm_add_r	arm_rot_r	elbow_flex_r	pro_sup_r	wrist_flex_r	wrist_dev_r	arm_flex_l	arm_add_l	arm_rot_l	elbow_flex_l	pro_sup_l	wrist_flex_l	wrist_dev_l
      4.24000000	    -26.43701540	     -9.28955991	     -2.76403725	     -0.36368635	      0.82356964	     -0.72744096	     68.21937898	     13.22569099	     -7.83483382	     66.31090847	      1.15734368	     21.05891610	      0.00000000	      0.00000000	     37.30124018	     -6.84907296	      7.75905772	     94.46556140	      1.64873508	    -10.54904601	      0.00000000	      0.00000000	    -20.11817295	     10.79147425	      7.27065650	     89.93706478	    -13.03393379	      9.94355761	     57.20363463	     86.56062570	      0.00000000	      0.00000000	     89.94337305	     -6.84820742	      8.43860608	     54.34454699	     85.38550438	      0.00000000	      0.00000000
      4.24500000	    -26.41060355	     -9.23664636	     -2.71557016	     -0.36352639	      0.82484603	     -0.72746389	     68.03151374	     13.16755728	     -7.78959292	     66.05270976	      1.15283727	     20.94422176	      0.00000000	      0.00000000	     37.25843262	     -6.78642017	      7.73106022	     94.44492784	      1.64837495	    -10.56222862	      0.00000000	      0.00000000	    -20.06866765	     10.75675887	      7.20773694	     89.93691927	    -13.04734458	      9.94399518	     57.18156029	     86.56033373	      0.00000000	      0.00000000	     89.94330127	     -6.84601681	      8.47739869	     54.35330388	     85.39326360	      0.00000000	      0.00000000
      4.25000000	    -26.38275106	     -9.18984612	     -2.68321697	     -0.36335521	      0.82614747	     -0.72732132	     67.83497517	     13.14141306	     -7.73932571	     65.77628841	      1.14801280	     20.82248993	      0.00000000	      0.00000000	     37.20197587	     -6.75846201	      7.69612938	     94.39238734	      1.64745795	    -10.56456309	      0.00000000	      0.00000000	    -20.02171491	     10.70452197	      7.15972085	     89.93671226	    -13.04520686	      9.96005563	     57.12322307	     86.56176194	      0.00000000	      0.00000000	     89.94329284	     -6.85416722	      8.50108269	     54.37053592	     85.40043457	      0.00000000	      0.00000000
      4.25500000	    -26.30243118	     -9.18438006	     -2.63394711	     -0.36303122	      0.82765820	     -0.72733693	     67.54790284	     13.12144939	     -7.71200801	     65.43962206	      1.14213687	     20.67297341	      0.00000000	      0.00000000	     37.07542794	     -6.72735433	      7.69715779	     94.32929325	      1.64635675	    -10.58193937	      0.00000000	      0.00000000	    -20.03740930	     10.70410638	      7.10927302	     89.93642162	    -13.05585067	      9.97577729	     57.07987299	     86.56230762	      0.00000000	      0.00000000	     89.94320784	     -6.86327947	      8.53395167	     54.35641890	     85.40856871	      0.00000000	      0.00000000
      4.26000000	    -26.17549469	     -9.22624051	     -2.58706083	     -0.36266569	      0.82924258	     -0.72717717	     67.20316198	     13.14621358	     -7.73147412	     65.08311592	      1.13591466	     20.53445231	      0.00000000	      0.00000000	     36.89968784	     -6.80422593	      7.69949945	     94.25637114	      1.64508402	    -10.60159651	      0.00000000	      0.00000000	    -20.11079419	     10.74031211	      7.08636653	     89.93620089	    -13.05255341	     10.00397239	     57.01816691	     86.56632932	      0.00000000	      0.00000000	     89.94307794	     -6.87864676	      8.56752126	     54.35301928	     85.41701331	      0.00000000	      0.00000000
      4.26500000	    -26.14424946	     -9.18914881	     -2.58190800	     -0.36249064	      0.83051476	     -0.72701541	     67.01575910	     13.13961312	     -7.69827892	     64.82266629	      1.13136896	     20.43756970	      0.00000000	      0.00000000	     36.84756259	     -6.78966881	      7.65605576	     94.23128098	      1.64464611	    -10.61214653	      0.00000000	      0.00000000	    -20.07276117	     10.69339830	      7.07675525	     89.93607870	    -13.05432149	     10.01359981	     56.99540694	     86.56725415	      0.00000000	      0.00000000	     89.94295869	     -6.89753322	      8.59630060	     54.35228260	     85.42406589	      0.00000000	      0.00000000
      4.27000000	    -26.06824448	     -9.19926150	     -2.55614361	     -0.36215672	      0.83210613	     -0.72690679	     66.71239336	     13.16105694	     -7.67191108	     64.44900706	      1.12484737	     20.29431830	      0.00000000	      0.00000000	     36.70577551	     -6.82023035	      7.63307330	     94.12936854	      1.64286740	    -10.62327945	      0.00000000	      0.00000000	    -20.09392060	     10.69508468	      7.05445388	     89.93571559	    -13.06339413	     10.04919791	     56.93484535	     86.57358732	      0.00000000	      0.00000000	     89.94284580	     -6.90113389	      8.63379413	     54.34148690	     85.43098067	      0.00000000	      0.00000000
      4.27500000	    -26.04094714	     -9.13081533	     -2.53100323	     -0.36204345	      0.83330292	     -0.72678460	     66.54017044	     13.11606678	     -7.62013778	     64.22194136	      1.12088433	     20.20369254	      0.00000000	      0.00000000	     36.67712095	     -6.79279336	      7.55622527	     94.12149657	      1.64273001	    -10.62882555	      0.00000000	      0.00000000	    -20.04267388	     10.62740889	      7.02571705	     89.93555863	    -13.07342080	     10.06399427	     56.90634992	     86.57722734	      0.00000000	      0.00000000	     89.94270121	     -6.90973771	      8.65623481	     54.34460498	     85.43626706	      0.00000000	      0.00000000
      4.28000000	    -25.97593208	     -9.09995179	     -2.46627580	     -0.36173298	      0.83477796	     -0.72678413	     66.27390214	     13.07235811	     -7.56649828	     63.89767677	      1.11522484	     20.06877145	      0.00000000	      0.00000000	     36.57656312	     -6.72530655	      7.56609230	     94.05201010	      1.64151724	    -10.65629289	      0.00000000	      0.00000000	    -20.03286893	     10.60268073	      6.95938165	     89.93521518	    -13.09165636	     10.09223611	     56.85603578	     86.57951398	      0.00000000	      0.00000000	     89.94260623	     -6.90915059	      8.70696115	     54.31364153	     85.44474974	      0.00000000	      0.00000000
      4.28500000	    -25.88550489	     -9.06797694	     -2.36561846	     -0.36140800	      0.83632141	     -0.72688993	     65.97768475	     12.98111343	     -7.55499758	     63.58509023	      1.10976918	     19.94343620	      0.00000000	      0.00000000	     36.44498749	     -6.67786512	      7.55243089	     93.95665043	      1.63985290	    -10.65157888	      0.00000000	      0.00000000	    -20.04976061	     10.59536778	      6.87568674	     89.93488005	    -13.10936468	     10.13355531	     56.81216439	     86.58839724	      0.00000000	      0.00000000	     89.94245948	     -6.89925962	      8.74056828	     54.29705891	     85.45055450	      0.00000000	      0.00000000
      4.29000000	    -25.76380591	     -9.08390738	     -2.33668190	     -0.36103957	      0.83780435	     -0.72668975	     65.65753750	     13.00076567	     -7.56026673	     63.26096073	      1.10411205	     19.80624629	      0.00000000	      0.00000000	     36.27403300	     -6.72322724	      7.54278013	     93.89002057	      1.63868999	    -10.66618756	      0.00000000	      0.00000000	    -20.10374451	     10.59345244	      6.86050147	     89.93471289	    -13.10511384	     10.18866614	     56.74744093	     86.59666725	      0.00000000	      0.00000000	     89.94230443	     -6.91461316	      8.77845004	     54.25996826	     85.45840833	      0.00000000	      0.00000000
      4.29500000	    -25.59871407	     -9.14954255	     -2.29261611	     -0.36058953	      0.83953921	     -0.72654977	     65.25655801	     13.05478858	     -7.58144376	     62.87700266	      1.09741072	     19.65337386	      0.00000000	      0.00000000	     36.03933521	     -6.80536814	      7.55521783	     93.78013516	      1.63677213	    -10.69213572	      0.00000000	      0.00000000	    -20.22514381	     10.65217976	      6.88100490	     89.93450516	    -13.12041361	     10.21623328	     56.71002213	     86.60175740	      0.00000000	      0.00000000	     89.94213379	     -6.92948923	      8.83134229	     54.24650149	     85.46891551	      0.00000000	      0.00000000
      4.30000000	    -25.56567501	     -9.07599091	     -2.25198031	     -0.36042140	      0.84075226	     -0.72653767	     65.07498613	     12.97145123	     -7.54838661	     62.67232069	      1.09383835	     19.58182351	      0.00000000	      0.00000000	     36.01498540	     -6.77550669	      7.48960750	     93.79666137	      1.63706057	    -10.63240006	      0.00000000	      0.00000000	    -20.17413927	     10.59200074	      6.82668246	     89.93416113	    -13.13401449	     10.23200701	     56.69074206	     86.60326079	      0.00000000	      0.00000000	     89.94199110	     -6.91241844	      8.84359059	     54.23836547	     85.47271839	      0.00000000	      0.00000000
      4.30500000	    -25.50123859	     -9.01616347	     -2.23280706	     -0.36014739	      0.84224605	     -0.72641423	     64.80545276	     12.93984024	     -7.49556963	     62.32638796	      1.08780068	     19.44009299	      0.00000000	      0.00000000	     35.90516456	     -6.73793471	      7.42163164	     93.69599984	      1.63530369	    -10.54932463	      0.00000000	      0.00000000	    -20.16382897	     10.51956642	      6.80575405	     89.93380681	    -13.14568792	     10.26979002	     56.62160147	     86.60794753	      0.00000000	      0.00000000	     89.94180344	     -6.91389974	      8.88969420	     54.19017420	     85.47956451	      0.00000000	      0.00000000
      4.31000000	    -25.44158981	     -8.95318230	     -2.16799558	     -0.35992823	      0.84355358	     -0.72644063	     64.58270012	     12.86161707	     -7.43496020	     62.08229168	      1.08354040	     19.33170708	      0.00000000	      0.00000000	     35.83561482	     -6.67842779	      7.37998408	     93.67130179	      1.63487263	    -10.52368201	      0.00000000	      0.00000000	    -20.13252754	     10.47378127	      6.76245866	     89.93358281	    -13.19300293	     10.28472824	     56.57432211	     86.60905996	      0.00000000	      0.00000000	     89.94160699	     -6.90000404	      8.93673496	     54.16488492	     85.48842793	      0.00000000	      0.00000000
      4.31500000	    -25.31130927	     -8.94011842	     -2.06799543	     -0.35945102	      0.84508263	     -0.72647709	     64.23042318	     12.80011136	     -7.42805254	     61.74306709	      1.07761981	     19.19313331	      0.00000000	      0.00000000	     35.63759803	     -6.63271358	      7.39130782	     93.53213461	      1.63244371	    -10.57950521	      0.00000000	      0.00000000	    -20.17364199	     10.47355823	      6.69063753	     89.93314254	    -13.21403987	     10.34541626	     56.50396387	     86.61613712	      0.00000000	      0.00000000	     89.94142294	     -6.88404089	      9.00649752	     54.08468363	     85.49929087	      0.00000000	      0.00000000
      4.32000000	    -25.19335339	     -8.92555814	     -2.01840834	     -0.35907270	      0.84656508	     -0.72642806	     63.91642062	     12.76136636	     -7.43827748	     61.45212967	      1.07254200	     19.08178536	      0.00000000	      0.00000000	     35.49067014	     -6.64431701	      7.34924052	     93.46972410	      1.63135444	    -10.60355051	      0.00000000	      0.00000000	    -20.21556124	     10.47256708	      6.66670058	     89.93286334	    -13.23209684	     10.38367415	     56.45292027	     86.61646219	      0.00000000	      0.00000000	     89.94113604	     -6.88348515	      9.03955948	     54.03493067	     85.50510646	      0.00000000	      0.00000000
